<svg width="3150" height="1136" viewBox="0 0 3150 1136" fill="none" xmlns="http://www.w3.org/2000/svg">
<rect x="72" y="40" width="1024" height="1024" fill="#FFF1E3"/>
<path fill-rule="evenodd" clip-rule="evenodd" d="M152 0H1016C1082.27 0 1136 53.7258 1136 120V984C1136 1025.31 1115.12 1061.75 1083.34 1083.34C1061.75 1115.12 1025.31 1136 984 1136H120C53.7258 1136 0 1082.27 0 1016V152C0 110.685 20.8788 74.2469 52.6608 52.6608C74.2469 20.8788 110.685 0 152 0ZM72 120V193.229C74.8897 191.306 78.0033 189.563 81.3576 188.042C94.9217 181.893 109.676 180.621 124.612 182.377C160.398 186.584 182.879 212.29 196.765 237.232C210.777 262.402 219.876 293.374 226.717 321.199C229.939 334.303 232.807 347.361 235.438 359.338L235.438 359.34L235.44 359.347L235.44 359.348C235.65 360.306 235.859 361.257 236.066 362.2C238.919 375.179 241.458 386.569 244.031 396.262C244.227 397.001 244.421 397.719 244.612 398.418L244.683 397.887C244.764 397.283 244.883 396.397 245.039 395.248C245.351 392.949 245.811 389.598 246.41 385.345C247.606 376.841 249.356 364.722 251.575 350.208C256.007 321.223 262.342 282.493 269.918 243.838C277.437 205.472 286.4 166.019 296.236 136.103C301.059 121.434 306.706 107.115 313.448 96.0928C316.768 90.6643 321.476 84.146 328.033 78.933C334.919 73.4585 346.179 67.7567 360.251 70.0231C382.435 73.5963 391.726 92.8635 394.884 100.287C399.07 110.128 401.795 121.968 403.892 132.97C405.917 143.594 407.737 155.626 409.553 167.627L409.943 170.205C411.93 183.326 413.984 196.681 416.49 209.879C421.638 236.99 428.113 259.978 437.22 275.616C445.624 290.046 453.405 294.024 462.63 294.024C469.535 294.024 478.549 290.064 487.783 278.615C496.035 268.384 501.88 255.066 504.134 242.945C504.426 240.812 504.804 238.082 505.262 234.821C506.459 226.317 508.208 214.199 510.428 199.685C514.86 170.699 521.195 131.969 528.771 93.3138C532.278 75.4198 536.099 57.2892 540.176 40H152C107.817 40 72 75.8172 72 120ZM1016 40H836.706C834.698 45.1413 832.604 50.8637 830.401 57.1639C827.986 64.0692 825.319 72.0479 822.525 80.4064C818.343 92.9177 813.876 106.28 809.546 118.167C802.03 138.796 793.044 160.563 781.642 178.367C770.661 195.512 753.828 214.689 728.435 220.341L725.001 221.106H721.482C702.104 221.106 688.014 210.273 679.214 200.438C670.368 190.55 663.489 178.072 657.965 165.895C646.843 141.375 637.63 109.804 629.645 80.5549C627.521 72.7761 625.485 65.1655 623.51 57.7876L623.51 57.7854L623.509 57.7811L623.506 57.7728L623.497 57.7359C621.869 51.6537 620.284 45.7297 618.727 40H606.057C600.987 59.9807 596.103 82.5258 591.576 105.623C584.233 143.088 578.049 180.867 573.692 209.358C571.517 223.583 569.805 235.446 568.638 243.738L568.421 245.288C568.384 245.764 568.336 246.241 568.278 246.72C568.029 248.759 567.727 250.807 567.374 252.862L567.241 253.837C567.125 254.697 567.035 255.369 566.971 255.841L566.863 256.659L566.627 256.839C562.189 278.665 552.058 300.867 537.6 318.794C520.963 339.421 495.36 358.024 462.63 358.024C423.271 358.024 397.524 334.627 381.916 307.825C367.011 282.232 358.989 250.132 353.614 221.817C351.413 210.224 349.557 198.677 347.891 187.837C342.576 208.473 337.454 232.008 332.723 256.147C325.38 293.612 319.197 331.39 314.84 359.882C312.665 374.107 310.952 385.97 309.786 394.262C309.296 397.744 308.902 400.595 308.611 402.724C308.574 403.365 308.518 404.009 308.442 404.655L308.35 404.645L308.348 404.664C308.381 404.668 308.402 404.672 308.416 404.674C308.439 404.678 308.439 404.68 308.439 404.68L308.43 404.761L308.414 404.886L308.404 404.969C308.395 405.038 308.386 405.113 308.375 405.194C308.345 405.424 308.307 405.704 308.26 406.031C308.166 406.683 308.035 407.526 307.86 408.53C307.512 410.527 306.977 413.222 306.183 416.367C304.645 422.46 301.905 431.187 297.068 440.022C292.295 448.742 284.454 459.431 271.869 466.78C258.433 474.625 242.544 476.921 225.752 473.075C206.237 468.605 196.957 451.905 193.299 444.519C188.603 435.036 185.073 423.608 182.173 412.681C179.188 401.434 176.363 388.697 173.559 375.94L172.959 373.212L172.959 373.21C170.298 361.095 167.592 348.779 164.568 336.48C157.946 309.546 150.455 285.622 140.846 268.363C131.111 250.876 122.94 246.621 117.139 245.939C110.499 245.158 108.093 246.192 107.784 246.332L107.771 246.337L107.768 246.338C107.615 246.402 106.752 246.762 105.217 249.204C103.353 252.168 101.225 257.089 98.9867 265.12C97.6225 270.016 96.3841 275.424 95.1285 281.496C95.039 282.943 94.8501 284.401 94.5565 285.863L93.6131 290.561C87.9304 318.866 80.5434 355.661 72 393.645V722.247C73.7152 717.289 75.4346 712.416 77.1399 707.735C85.4018 685.057 95.2032 661.355 107.564 642.055C119.502 623.414 137.437 603.179 164.147 597.234L167.582 596.469H171.1C191.151 596.469 205.862 607.672 215.242 618.155C224.668 628.69 232.084 642.094 238.112 655.384C250.244 682.13 260.335 716.674 269.137 748.914C271.462 757.432 273.697 765.784 275.867 773.894L275.868 773.895L275.868 773.897L275.869 773.901C281.305 794.216 286.335 813.012 291.364 829.098C300.557 800.453 309.491 761.464 317.409 721.066C325.51 679.731 332.33 638.063 337.134 606.649C339.532 590.963 341.421 577.881 342.708 568.735L342.962 566.919C342.997 566.453 343.042 565.985 343.098 565.516C343.462 562.436 343.904 559.37 344.42 556.324L344.547 555.38C344.588 555.07 344.619 554.838 344.639 554.686L344.666 554.48L344.667 554.472L344.756 554.404C350.471 522.716 364.232 493.295 382.319 472.557C392.388 461.014 405.299 450.464 420.752 445.086C437.21 439.359 455.969 439.885 473.026 450.365C484.877 457.647 493.537 468.921 499.815 478.847C506.46 489.353 512.48 501.698 517.964 514.456C528.904 539.909 539.256 570.73 548.815 599.195C557.908 626.27 566.228 651.025 574.243 670.179C574.722 668.787 575.206 667.345 575.697 665.854C585.186 636.995 594.423 596.863 602.581 555.237C610.683 513.902 617.503 472.234 622.306 440.82C624.705 425.134 626.593 412.052 627.88 402.906C628.43 399.003 628.869 395.818 629.191 393.456C629.228 392.768 629.287 392.077 629.368 391.383L629.471 391.395L629.474 391.376C629.371 391.362 629.371 391.359 629.371 391.359L629.381 391.277L629.397 391.149C629.408 391.056 629.422 390.95 629.437 390.83L629.45 390.736L629.458 390.677L629.469 390.59L629.482 390.494C629.492 390.421 629.503 390.343 629.514 390.263C629.528 390.164 629.543 390.06 629.558 389.951C629.658 389.262 629.796 388.366 629.983 387.293C630.356 385.16 630.929 382.272 631.781 378.897C633.434 372.344 636.37 363.014 641.521 353.603C646.61 344.307 654.887 333.07 668.07 325.372C682.104 317.177 698.753 314.731 716.508 318.798C734.426 322.902 744.715 337.239 749.655 345.201C755.588 354.764 760.515 366.425 764.736 378.101C773.044 401.081 780.831 430.534 788.313 458.832L788.313 458.834L788.81 460.711C796.668 490.427 804.302 519.128 812.503 542.278C816.593 553.821 820.496 563.025 824.169 569.773C827.335 575.589 829.389 577.807 829.827 578.28C829.85 578.305 829.869 578.325 829.883 578.341L829.894 578.353C829.899 578.358 829.902 578.363 829.905 578.367L829.908 578.37C829.911 578.373 829.912 578.375 829.913 578.377C829.915 578.38 829.914 578.381 829.914 578.381C829.914 578.381 829.909 578.38 829.904 578.377C829.893 578.37 829.871 578.355 829.84 578.333C831.913 579.8 833.061 580.085 833.397 580.132C833.803 580.04 835.156 579.568 837.491 577.538C845.182 570.849 857.035 552.634 866.737 513.675C877.58 459.676 893.711 379.907 912.213 313.24C921.913 278.29 932.732 245.182 944.444 220.894C950.181 208.997 957.183 196.953 965.906 187.846C974.244 179.141 990.4 167.056 1011.92 171.986C1023 174.524 1030.63 181.09 1035.29 186.378C1040.01 191.726 1043.46 197.749 1046.04 203.098C1051.2 213.782 1055.28 226.936 1058.75 240.16C1064.01 260.255 1068.94 285.103 1073.84 309.814L1073.85 309.833L1073.85 309.836L1073.86 309.904L1073.87 309.928C1075.42 317.751 1076.97 325.559 1078.52 333.198C1084 360.08 1089.62 385.201 1096 405.52V120C1096 75.8172 1060.18 40 1016 40ZM1096 984V898.82C1094.45 897.878 1092.95 896.886 1091.49 895.85C1080.86 888.32 1073.45 877.615 1068.18 868.203C1062.66 858.338 1057.92 847.002 1053.76 835.457C1045.47 812.464 1038.15 784.84 1031.34 759.159L1031.3 759.015C1024.3 732.595 1017.84 708.211 1010.94 688.92C1008.77 682.856 1006.71 677.726 1004.77 673.495L1004.74 673.592L1004.7 673.79L1004.69 673.86C1004.43 675.093 1004.22 676.216 1004.05 677.178C1004.01 677.822 1003.94 678.468 1003.86 679.116L1003.75 679.101L1003.74 679.107C1003.85 679.122 1003.85 679.123 1003.85 679.123L1003.73 680.074C1003.68 680.469 1003.61 680.982 1003.52 681.61C1003.48 681.955 1003.42 682.336 1003.37 682.75C1003.05 685.08 1002.58 688.478 1001.98 692.79C1000.76 701.413 998.99 713.701 996.74 728.418C992.245 757.81 985.822 797.08 978.141 836.273C970.516 875.177 961.431 915.165 951.465 945.476C946.576 960.343 940.863 974.825 934.054 985.957C930.699 991.441 925.958 998.001 919.367 1003.24C912.447 1008.74 901.152 1014.46 887.047 1012.18C869.267 1009.32 858.429 996.005 853.345 988.897C847.167 980.257 841.855 969.654 837.25 959.126C828.188 938.412 819.23 911.735 810.67 886.244L810.078 884.484C801.061 857.634 792.354 831.837 783.475 811.182C781.35 806.237 779.304 801.803 777.345 797.885C775.465 802.01 773.499 806.739 771.494 812.047C762.534 835.765 755.408 863.814 751.881 882.564C751.773 884.501 751.487 886.457 751.01 888.41C750.835 889.124 750.666 889.853 750.502 890.596C750.28 892.054 750.092 893.411 749.94 894.655C749.705 896.583 749.303 898.449 748.75 900.242C746.678 914.139 745.667 931.781 744.766 952.935C744.699 954.507 744.633 956.095 744.567 957.698C744.515 958.955 744.463 960.222 744.41 961.496C743.413 985.756 742.292 1013.02 738.858 1038.48C737.728 1046.86 736.304 1055.45 734.437 1064H1016C1060.18 1064 1096 1028.18 1096 984ZM668.344 1064C671.3 1054.48 673.653 1043.13 675.432 1029.93C678.441 1007.61 679.443 983.462 680.467 958.748L680.583 955.959C680.623 954.994 680.663 954.028 680.704 953.062C680.744 952.113 680.784 951.163 680.824 950.213C681.848 926.155 683.127 900.363 687.547 878.965C691.266 855.854 700.175 819.734 711.624 789.429C717.918 772.768 726.057 754.891 736.212 741.893C741.184 735.53 748.797 727.489 759.556 722.85C772.302 717.354 786.981 717.809 799.902 725.749C811.306 732.756 819.53 743.524 825.38 752.774C831.598 762.605 837.2 774.105 842.274 785.908C852.388 809.44 861.945 837.897 870.732 864.06L870.748 864.108C878.15 886.148 884.962 906.415 891.501 922.915C899.893 896.714 908.071 861.031 915.335 823.964C922.784 785.961 929.056 747.642 933.475 718.744C935.681 704.316 937.418 692.284 938.601 683.873C939.1 680.331 939.5 677.433 939.795 675.27C939.81 675.005 939.829 674.739 939.85 674.472C939.858 674.385 939.865 674.297 939.873 674.209C939.885 674.072 939.898 673.935 939.912 673.798L939.994 673.807L939.996 673.791C939.914 673.781 939.915 673.779 939.915 673.779L939.922 673.71L939.934 673.597C939.943 673.513 939.954 673.414 939.967 673.298C939.993 673.067 940.027 672.773 940.07 672.42C940.157 671.715 940.282 670.772 940.45 669.631C940.785 667.361 941.306 664.241 942.074 660.609C943.547 653.647 946.204 643.482 950.935 633.586C955.292 624.475 963.803 610.489 979.697 603.028C998.227 594.329 1017.41 598.508 1033.18 608.439C1044.56 615.608 1052.13 626.527 1057.19 635.487C1062.59 645.046 1067.19 656.13 1071.21 667.377C1079.02 689.237 1086.06 715.805 1092.7 740.857L1093.2 742.762C1094.14 746.302 1095.07 749.812 1096 753.284V503.44C1080.04 499.987 1068.56 489.584 1061.04 479.983C1052.32 468.853 1045.8 454.992 1040.65 441.337C1030.29 413.854 1022.49 378.723 1015.81 345.976C1014.05 337.347 1012.38 328.888 1010.74 320.674L1010.74 320.626L1010.73 320.61C1006.16 297.591 1001.97 276.493 997.496 258.93C989.763 277.308 981.776 301.912 973.882 330.355C956.528 392.886 941.184 468.076 930.323 522.101C930.175 523.327 929.955 524.557 929.66 525.786C929.51 526.409 929.36 527.03 929.208 527.65L928.602 530.667L928.602 530.669L927.708 535.119C927.179 537.753 926.341 540.245 925.239 542.567C914.54 579.632 899.578 608.359 879.49 625.829C867.371 636.369 852.663 643.363 836.148 644.075C819.716 644.783 804.936 639.125 792.824 630.543C781.475 622.501 773.571 610.685 767.957 600.369C762.014 589.451 756.814 576.738 752.177 563.649C742.926 537.534 734.613 506.102 726.937 477.073C719.036 447.196 711.861 420.089 704.548 399.86C702.09 393.061 699.87 387.775 697.938 383.839C697.892 383.919 697.846 384.001 697.799 384.084C697.753 384.166 697.707 384.249 697.66 384.335C695.98 387.404 694.695 391.152 693.835 394.556C693.624 395.394 693.453 396.151 693.318 396.801L693.302 396.927L693.293 396.993L693.279 396.991L693.277 396.997C693.285 396.999 693.288 396.999 693.29 397C693.292 397 693.292 397 693.292 397L693.155 398.029C693.067 398.692 692.936 399.665 692.764 400.929C692.421 403.456 691.914 407.143 691.256 411.823C689.939 421.182 688.014 434.519 685.571 450.494C680.692 482.402 673.721 525.021 665.386 567.547C657.109 609.782 647.266 653.085 636.495 685.844C631.204 701.936 625.076 717.425 617.848 729.242C614.284 735.068 609.332 741.89 602.531 747.297C595.4 752.966 583.895 758.753 569.579 756.448C551.431 753.525 540.227 739.892 534.776 732.27C528.23 723.116 522.55 711.802 517.574 700.428C507.78 678.04 498.082 649.16 488.764 621.411L488.146 619.57C478.36 590.432 468.864 562.293 459.165 539.729C454.329 528.478 449.832 519.55 445.725 513.056C443.401 509.382 441.657 507.224 440.601 506.049C438.537 507.099 434.979 509.549 430.551 514.625C420.743 525.87 411.511 544.533 407.69 566.033L407.592 566.758C407.248 569.285 406.742 572.972 406.083 577.652C404.767 587.01 402.841 600.348 400.398 616.323C395.519 648.231 388.548 690.85 380.214 733.375C371.936 775.611 362.093 818.914 351.322 851.673C346.031 867.765 339.903 883.254 332.675 895.071C329.112 900.897 324.16 907.719 317.358 913.126C310.228 918.795 298.722 924.582 284.407 922.277C273.184 920.469 265.14 914.417 260.142 909.445C255.087 904.418 251.249 898.634 248.324 893.465C242.482 883.14 237.54 870.283 233.219 857.314C226.653 837.606 220.107 813.134 213.597 788.797C211.527 781.055 209.459 773.326 207.396 765.77C198.505 733.201 189.575 703.309 179.828 681.821C176.367 674.19 173.24 668.628 170.598 664.782C168.068 667.307 164.996 671.047 161.458 676.572C153.054 689.693 145.187 707.922 137.273 729.643C132.552 742.603 128.428 754.983 124.238 767.559C121.147 776.837 118.02 786.222 114.591 796.027C107.234 817.067 98.7563 839.162 88.2407 855.686C84.2632 861.937 78.4774 866.339 72 868.646V984C72 1028.18 107.817 1064 152 1064H387.587C388.571 1052.53 390.727 1040.29 393.429 1028.44C398.549 1005.98 406.588 980.883 416.822 957.344C426.925 934.107 439.91 910.66 455.609 892.768C470.326 875.995 492.902 858.088 522.001 859.884C542.969 860.434 556.521 873.62 563.878 885.819C570.808 897.31 574.592 911.23 577.104 923.558C580.537 940.401 582.875 961.85 585.141 982.63L585.141 982.631C586.151 991.891 587.146 1001.02 588.217 1009.54C590.827 1030.32 593.966 1048.84 598.371 1064H668.344ZM532.391 1064C528.919 1048.32 526.58 1032.36 524.716 1017.52C523.281 1006.1 522.124 995.413 521.043 985.439L521.043 985.436C519.001 966.586 517.234 950.277 514.393 936.338C513.615 932.518 512.846 929.41 512.129 926.912C509.923 928.569 507.117 931.102 503.716 934.979C494.094 945.944 484.254 962.761 475.515 982.861C466.908 1002.66 460.09 1023.97 455.828 1042.66C453.935 1050.96 452.694 1058.11 451.943 1064H532.391ZM685.008 40L685.78 42.8849C687.655 49.8952 689.524 56.8822 691.385 63.6997C699.46 93.2773 707.513 120.196 716.25 139.458C718.484 144.384 720.537 148.287 722.351 151.31C723.938 149.414 725.744 146.978 727.748 143.85C735.193 132.225 742.245 115.931 749.412 96.2592C753.696 84.5001 757.408 73.3566 761.193 61.9943C763.582 54.8201 766.001 47.5587 768.611 40H685.008ZM727.963 158.835C728.021 158.884 728.049 158.904 728.049 158.904C728.049 158.904 728.04 158.895 728.021 158.88C728.007 158.868 727.988 158.853 727.963 158.835ZM1012.6 231.652C1012.6 231.652 1012.59 231.656 1012.58 231.662L1012.55 231.688C1012.57 231.674 1012.58 231.664 1012.59 231.658C1012.59 231.654 1012.6 231.652 1012.6 231.652ZM833.266 580.15C833.266 580.147 833.306 580.138 833.386 580.134C833.351 580.142 833.324 580.146 833.305 580.149C833.279 580.152 833.266 580.15 833.266 580.15ZM833.5 580.137C833.499 580.137 833.497 580.136 833.495 580.136C833.491 580.135 833.486 580.135 833.478 580.134C833.463 580.133 833.44 580.133 833.409 580.133C833.451 580.139 833.479 580.14 833.493 580.14C833.499 580.14 833.502 580.138 833.502 580.138L833.5 580.137ZM694.022 377.097C693.727 376.807 693.586 376.622 693.588 376.602C693.591 376.582 693.739 376.726 694.022 377.097ZM165.824 659.151C165.824 659.148 165.862 659.173 165.938 659.233C165.862 659.184 165.824 659.154 165.824 659.151ZM1009.99 658.853C1010.01 658.837 1010.02 658.822 1010.03 658.809L1010.05 658.788L1010.06 658.772C1010.07 658.763 1010.08 658.755 1010.08 658.748C1010.08 658.744 1010.09 658.741 1010.09 658.737C1010.09 658.73 1010.1 658.724 1010.1 658.724C1010.1 658.724 1010.08 658.736 1010.06 658.766C1010.04 658.786 1010.02 658.815 1009.99 658.853Z" fill="#070727"/>
<path d="M2934.28 808.513C2932.68 809.047 2929.21 808.78 2923.88 807.713C2919.08 806.647 2914.01 805.313 2908.68 803.713C2903.88 802.113 2900.95 800.78 2899.88 799.713C2897.75 797.58 2894.81 793.847 2891.08 788.513C2887.35 782.647 2885.21 774.913 2884.68 765.313C2884.68 755.713 2889.21 744.247 2898.28 730.913C2900.95 725.58 2904.15 717.58 2907.88 706.913C2911.61 696.247 2915.35 685.047 2919.08 673.313C2923.35 661.047 2927.08 650.113 2930.28 640.513C2934.01 630.913 2936.68 624.247 2938.28 620.513C2939.35 611.447 2938.81 605.047 2936.68 601.313C2935.08 597.047 2930.55 594.647 2923.08 594.113C2917.75 594.113 2913.48 592.247 2910.28 588.513C2907.61 584.78 2906.28 578.113 2906.28 568.513C2907.35 561.047 2909.21 554.647 2911.88 549.313C2915.08 543.447 2919.35 538.647 2924.68 534.913C2930.01 532.247 2936.68 530.38 2944.68 529.313C2953.21 528.247 2961.48 527.98 2969.48 528.513C2977.48 529.047 2983.08 530.913 2986.28 534.113C2990.01 536.247 2992.95 541.047 2995.08 548.513C2997.75 555.447 2999.88 562.647 3001.48 570.113C3003.08 577.58 3004.15 583.18 3004.68 586.913C3010.01 582.647 3015.88 576.78 3022.28 569.313C3029.21 561.313 3036.15 553.847 3043.08 546.913C3051.62 541.047 3061.75 535.18 3073.48 529.313C3085.21 522.913 3093.75 519.713 3099.08 519.713C3104.95 519.713 3112.15 522.647 3120.68 528.513C3129.21 533.847 3134.55 538.647 3136.68 542.913C3142.01 551.98 3145.75 561.58 3147.88 571.713C3150.55 581.313 3148.95 589.847 3143.08 597.313C3137.75 604.247 3130.28 611.18 3120.68 618.113C3111.08 624.513 3099.08 626.38 3084.68 623.713C3081.48 622.647 3078.01 618.647 3074.28 611.713C3071.08 604.78 3069.21 599.713 3068.68 596.513C3068.68 594.913 3066.28 596.513 3061.48 601.313C3057.22 605.58 3051.88 610.913 3045.48 617.313C3039.61 623.713 3034.01 629.58 3028.68 634.913C3019.61 646.113 3010.01 661.313 2999.88 680.513C2989.75 699.713 2977.75 722.913 2963.88 750.113C2957.48 763.447 2952.15 776.247 2947.88 788.513C2943.61 800.247 2939.08 806.913 2934.28 808.513Z" fill="#070727"/>
<path d="M2738.05 798.913C2735.92 798.913 2731.38 797.313 2724.45 794.113C2717.52 790.913 2714.05 789.313 2714.05 789.313C2714.05 787.18 2713.25 784.513 2711.65 781.313C2710.58 778.113 2710.05 775.447 2710.05 773.313C2706.32 771.18 2702.58 767.713 2698.85 762.913C2695.12 758.113 2694.32 752.78 2696.45 746.913C2699.65 741.047 2703.92 732.247 2709.25 720.513C2715.12 708.247 2721.25 694.647 2727.65 679.713C2734.58 664.247 2740.98 649.313 2746.85 634.913C2752.72 620.513 2757.78 608.247 2762.05 598.113C2766.32 587.447 2768.72 581.047 2769.25 578.913C2769.25 576.78 2769.52 573.047 2770.05 567.713C2771.12 562.38 2774.58 557.847 2780.45 554.113C2787.38 549.313 2794.58 549.047 2802.05 553.313C2809.52 557.58 2815.92 565.047 2821.25 575.713C2826.58 585.847 2829.25 597.847 2829.25 611.713C2829.25 615.447 2826.58 625.047 2821.25 640.513C2815.92 655.447 2808.72 673.313 2799.65 694.113C2791.12 714.913 2781.52 735.98 2770.85 757.313C2762.85 772.78 2756.72 783.713 2752.45 790.113C2748.72 795.98 2743.92 798.913 2738.05 798.913ZM2846.85 492.513C2840.45 492.513 2832.72 489.58 2823.65 483.713C2815.12 477.847 2807.38 470.38 2800.45 461.313C2793.52 452.247 2790.05 442.647 2790.05 432.513C2790.05 429.847 2792.45 425.047 2797.25 418.113C2802.05 410.647 2806.58 403.447 2810.85 396.513C2815.65 389.58 2818.05 385.58 2818.05 384.513C2822.32 384.513 2827.38 385.313 2833.25 386.913C2839.12 388.513 2843.92 390.38 2847.65 392.513C2853.52 405.847 2861.25 417.313 2870.85 426.913C2880.45 435.98 2885.25 446.38 2885.25 458.113C2885.25 469.847 2882.32 478.647 2876.45 484.513C2870.58 489.847 2860.72 492.513 2846.85 492.513Z" fill="#070727"/>
<path d="M2495.37 818.913C2483.64 818.913 2474.84 818.38 2468.97 817.314C2463.64 816.247 2459.64 814.647 2456.97 812.514C2454.3 810.38 2450.84 807.447 2446.57 803.714C2444.44 799.447 2440.7 794.114 2435.37 787.714C2430.04 780.78 2426.3 776.247 2424.17 774.113C2422.04 766.113 2421.24 755.18 2421.77 741.314C2422.84 727.447 2425.24 712.514 2428.97 696.514C2432.7 680.514 2437.24 666.113 2442.57 653.314C2444.7 649.047 2446.57 644.78 2448.17 640.514C2449.77 636.247 2450.57 634.113 2450.57 634.113C2450.57 631.447 2453.77 625.047 2460.17 614.913C2467.1 604.78 2474.57 594.113 2482.57 582.913C2491.1 571.713 2498.04 563.714 2503.37 558.914C2507.1 554.647 2512.7 550.113 2520.17 545.313C2528.17 540.513 2535.1 537.047 2540.97 534.914C2546.84 532.78 2554.84 530.113 2564.97 526.913C2575.1 523.18 2584.17 521.313 2592.17 521.313C2599.64 521.313 2607.64 522.913 2616.17 526.113C2624.7 529.313 2631.9 534.913 2637.77 542.913C2647.37 552.513 2653.5 563.98 2656.17 577.314C2658.84 590.647 2659.1 602.113 2656.97 611.713C2654.3 622.38 2648.97 631.18 2640.97 638.113C2632.97 644.513 2624.44 647.98 2615.37 648.514C2606.3 648.514 2598.3 644.78 2591.37 637.314C2589.24 633.047 2588.17 629.58 2588.17 626.913C2588.17 623.713 2589.24 619.18 2591.37 613.314C2593.5 605.847 2594.57 599.18 2594.57 593.314C2594.57 587.447 2592.17 584.513 2587.37 584.513C2580.44 584.513 2574.84 586.647 2570.57 590.913C2566.3 594.647 2559.9 601.047 2551.37 610.113C2547.64 614.38 2542.84 620.514 2536.97 628.514C2531.1 636.514 2525.24 645.313 2519.37 654.913C2514.04 663.98 2509.24 673.313 2504.97 682.913C2499.1 700.513 2495.37 711.98 2493.77 717.314C2492.7 722.114 2492.17 724.514 2492.17 724.514C2492.17 726.647 2491.9 728.78 2491.37 730.913C2490.84 732.513 2490.57 734.38 2490.57 736.514C2490.57 742.914 2494.3 747.98 2501.77 751.714C2507.64 755.447 2512.44 757.314 2516.17 757.314C2520.44 756.78 2528.44 753.847 2540.17 748.514C2548.7 744.247 2556.7 738.647 2564.17 731.714C2572.17 724.78 2580.44 718.647 2588.97 713.314C2594.84 709.58 2599.37 706.38 2602.57 703.713C2606.3 701.047 2608.17 700.78 2608.17 702.913C2608.17 705.047 2608.97 706.113 2610.57 706.113C2612.17 706.113 2614.04 705.047 2616.17 702.913C2619.37 698.647 2623.37 697.047 2628.17 698.113C2632.97 698.647 2637.24 699.98 2640.97 702.113C2645.24 704.247 2647.37 706.114 2647.37 707.714C2646.3 712.514 2647.37 716.514 2650.57 719.714C2650.57 721.847 2649.77 724.78 2648.17 728.514C2647.1 731.714 2645.5 734.38 2643.37 736.514C2640.7 740.247 2636.7 745.58 2631.37 752.514C2626.57 759.447 2622.04 765.58 2617.77 770.913C2613.5 776.247 2611.37 778.913 2611.37 778.913C2609.24 778.38 2607.1 778.914 2604.97 780.514C2603.37 782.114 2601.5 783.98 2599.37 786.113C2595.1 789.847 2591.1 792.78 2587.37 794.913C2583.64 796.513 2580.7 797.314 2578.57 797.314C2574.84 799.447 2571.9 800.78 2569.77 801.314C2568.17 801.847 2567.37 803.18 2567.37 805.314C2562.04 810.647 2552.44 814.38 2538.57 816.514C2524.7 818.114 2510.3 818.913 2495.37 818.913Z" fill="#070727"/>
<path d="M2151.89 803.713C2147.09 799.98 2141.75 795.18 2135.89 789.313C2130.55 783.447 2128.69 775.18 2130.29 764.513C2131.89 749.58 2134.02 736.513 2136.69 725.313C2139.35 713.58 2142.55 700.247 2146.29 685.313C2147.35 678.913 2150.02 667.98 2154.29 652.513C2159.09 637.047 2164.69 620.247 2171.09 602.113C2177.49 583.98 2184.15 566.913 2191.09 550.913C2198.02 534.38 2204.15 522.113 2209.49 514.113C2215.35 508.78 2223.89 506.113 2235.09 506.113C2246.82 506.113 2254.82 508.247 2259.09 512.513C2264.95 517.313 2266.82 525.847 2264.69 538.113C2262.55 549.847 2255.09 568.247 2242.29 593.313C2239.62 599.713 2236.15 606.647 2231.89 614.113C2228.15 621.047 2225.49 626.913 2223.89 631.713C2222.29 635.98 2222.82 637.847 2225.49 637.313C2228.69 631.447 2234.55 624.78 2243.09 617.313C2251.62 609.313 2260.69 601.58 2270.29 594.113C2279.89 586.647 2288.95 579.98 2297.49 574.113C2306.02 568.247 2311.89 564.513 2315.09 562.913C2319.35 560.247 2324.15 558.113 2329.49 556.513C2335.35 554.38 2339.35 552.78 2341.49 551.713C2353.75 545.847 2367.09 543.713 2381.49 545.313C2396.42 546.38 2405.49 550.913 2408.69 558.913C2409.22 563.18 2410.82 566.38 2413.49 568.513C2416.69 570.647 2418.29 571.713 2418.29 571.713C2420.42 571.713 2421.49 572.513 2421.49 574.113C2422.02 575.713 2422.29 576.513 2422.29 576.513C2422.29 580.247 2418.55 585.58 2411.09 592.513C2404.15 599.447 2396.42 603.18 2387.89 603.713C2380.95 604.247 2374.82 605.58 2369.49 607.713C2364.15 609.847 2357.75 612.513 2350.29 615.713C2330.02 627.447 2311.62 637.847 2295.09 646.913C2279.09 655.98 2262.55 669.847 2245.49 688.513C2241.75 692.78 2237.75 696.78 2233.49 700.513C2229.22 704.247 2224.95 709.58 2220.69 716.513C2218.02 719.18 2215.35 725.047 2212.69 734.113C2210.02 743.18 2207.62 751.98 2205.49 760.513C2203.89 768.513 2203.09 773.313 2203.09 774.913C2203.09 774.913 2202.29 777.58 2200.69 782.913C2199.09 787.713 2196.42 792.513 2192.69 797.313C2186.29 805.847 2179.89 811.18 2173.49 813.313C2167.62 815.447 2160.42 812.247 2151.89 803.713Z" fill="#070727"/>
<path d="M2036.46 824.513C2023.66 824.513 2012.46 817.847 2002.86 804.513C1993.79 790.647 1988.19 774.113 1986.06 754.913C1986.59 750.647 1987.12 744.513 1987.66 736.513C1988.72 728.513 1989.79 720.247 1990.86 711.713C1992.99 701.58 1995.92 688.513 1999.66 672.513C2003.39 656.513 2007.39 640.513 2011.66 624.513C2015.92 607.98 2019.66 593.847 2022.86 582.113C2026.06 569.847 2027.92 562.647 2028.46 560.513C2031.66 553.047 2038.86 551.18 2050.06 554.913C2061.26 558.647 2070.86 566.647 2078.86 578.913C2082.06 583.18 2083.92 588.247 2084.46 594.113C2085.52 599.98 2084.72 608.513 2082.06 619.713C2079.92 630.913 2075.66 647.447 2069.26 669.313C2063.39 690.647 2058.86 707.98 2055.66 721.313C2052.99 734.113 2051.92 747.713 2052.46 762.113C2050.32 786.647 2048.19 803.447 2046.06 812.513C2043.92 821.047 2040.72 825.047 2036.46 824.513ZM2110.06 492.513C2107.92 494.113 2105.79 494.913 2103.66 494.913C2102.06 494.38 2099.12 492.78 2094.86 490.113C2091.12 489.58 2086.32 487.18 2080.46 482.913C2075.12 478.113 2070.32 473.313 2066.06 468.513C2062.32 463.713 2060.46 460.78 2060.46 459.713C2059.92 454.38 2060.19 445.847 2061.26 434.113C2062.86 422.38 2065.79 411.447 2070.06 401.313C2074.86 390.647 2081.26 385.047 2089.26 384.513C2091.39 384.513 2095.92 385.58 2102.86 387.713C2110.32 389.847 2118.06 392.513 2126.06 395.713C2130.32 403.713 2134.32 414.113 2138.06 426.913C2141.79 439.713 2142.06 452.247 2138.86 464.513C2136.19 476.247 2126.59 485.58 2110.06 492.513Z" fill="#070727"/>
<path d="M1744.21 819.713C1737.28 819.713 1731.68 818.38 1727.41 815.713C1723.68 813.047 1718.88 809.313 1713.01 804.513C1702.88 793.847 1694.61 782.38 1688.21 770.113C1682.35 757.847 1680.21 747.18 1681.81 738.113C1683.41 733.847 1683.95 729.847 1683.41 726.113C1683.41 721.847 1683.41 719.713 1683.41 719.713C1680.75 717.047 1679.95 715.447 1681.01 714.913C1682.08 713.847 1683.15 712.247 1684.21 710.113C1687.41 710.113 1688.48 707.18 1687.41 701.313C1686.35 697.047 1687.95 687.98 1692.21 674.113C1697.01 659.713 1703.41 646.113 1711.41 633.313C1714.61 627.98 1719.41 621.047 1725.81 612.513C1732.21 603.447 1739.15 594.647 1746.61 586.113C1754.61 577.047 1761.81 569.847 1768.21 564.513C1781.55 553.313 1793.81 544.247 1805.01 537.313C1816.75 530.38 1828.48 525.58 1840.21 522.913C1851.95 520.247 1863.95 518.913 1876.21 518.913C1889.01 518.913 1899.41 523.18 1907.41 531.713C1919.68 537.047 1928.21 544.247 1933.01 553.313C1938.35 562.38 1941.81 574.113 1943.41 588.513C1945.01 604.513 1943.41 624.247 1938.61 647.713C1933.81 670.647 1920.75 697.313 1899.41 727.713C1886.08 746.913 1873.01 761.847 1860.21 772.513C1847.41 783.18 1833.28 793.047 1817.81 802.113C1806.61 809.58 1794.61 814.113 1781.81 815.713C1769.01 817.313 1756.48 818.647 1744.21 819.713ZM1825.81 722.113C1837.55 711.98 1845.81 700.78 1850.61 688.513C1855.95 676.247 1861.55 661.847 1867.41 645.313C1869.55 642.113 1870.88 636.78 1871.41 629.313C1872.48 621.847 1872.75 614.647 1872.21 607.713C1871.68 600.247 1869.81 595.98 1866.61 594.913C1861.81 591.18 1857.01 590.38 1852.21 592.513C1847.41 594.113 1841.28 597.58 1833.81 602.913C1817.81 616.247 1802.88 631.713 1789.01 649.313C1775.68 666.38 1766.35 687.447 1761.01 712.513C1759.41 725.847 1760.75 735.98 1765.01 742.913C1769.81 749.313 1777.28 751.18 1787.41 748.513C1798.08 745.313 1810.88 736.513 1825.81 722.113Z" fill="#070727"/>
<path d="M1202.5 893.313C1191.83 887.447 1184.63 880.513 1180.9 872.513C1177.17 864.513 1175.57 855.713 1176.1 846.113C1177.17 836.513 1179.03 826.647 1181.7 816.513C1185.97 799.447 1190.5 785.313 1195.3 774.113C1200.63 762.38 1205.7 750.38 1210.5 738.113C1215.83 725.313 1220.37 709.047 1224.1 689.313C1232.63 669.58 1240.1 650.913 1246.5 633.313C1253.43 615.713 1258.77 601.313 1262.5 590.113C1266.23 578.913 1268.1 573.313 1268.1 573.313C1268.63 571.18 1270.77 565.58 1274.5 556.513C1278.77 547.447 1283.83 536.513 1289.7 523.713C1296.1 510.38 1302.23 497.047 1308.1 483.713C1317.17 458.113 1325.7 436.513 1333.7 418.913C1341.7 400.78 1349.7 384.513 1357.7 370.113C1366.23 355.713 1375.3 341.313 1384.9 326.913C1391.3 315.713 1400.37 309.047 1412.1 306.913C1423.83 304.78 1435.03 306.113 1445.7 310.913C1456.37 315.18 1463.3 322.647 1466.5 333.313C1469.17 338.647 1471.3 344.78 1472.9 351.713C1475.03 358.647 1476.9 369.047 1478.5 382.913C1480.63 396.247 1481.97 415.713 1482.5 441.313C1483.57 471.713 1484.1 499.713 1484.1 525.313C1484.63 550.38 1485.7 573.58 1487.3 594.913C1489.43 616.247 1492.9 635.713 1497.7 653.313C1499.3 662.913 1500.9 674.647 1502.5 688.513C1504.1 701.847 1505.7 715.18 1507.3 728.513C1509.43 741.847 1511.57 753.047 1513.7 762.113C1515.83 770.647 1517.97 774.913 1520.1 774.913C1522.77 774.913 1525.7 772.78 1528.9 768.513C1532.63 763.713 1537.43 753.847 1543.3 738.913C1549.17 723.98 1556.63 701.047 1565.7 670.113C1574.77 639.18 1585.7 597.58 1598.5 545.313C1601.17 536.247 1604.63 521.58 1608.9 501.313C1613.7 481.047 1617.17 460.513 1619.3 439.713C1623.03 426.38 1626.77 411.713 1630.5 395.713C1634.23 379.713 1637.43 365.58 1640.1 353.313C1643.3 341.047 1644.9 334.113 1644.9 332.513C1644.9 328.78 1644.9 325.58 1644.9 322.913C1645.43 320.247 1645.43 317.58 1644.9 314.913C1647.57 314.913 1649.97 311.447 1652.1 304.513C1654.23 297.047 1655.3 290.647 1655.3 285.313C1655.3 276.247 1656.37 269.047 1658.5 263.713C1661.17 257.847 1663.83 253.58 1666.5 250.913C1672.37 240.247 1679.83 234.913 1688.9 234.913C1698.5 234.38 1707.3 237.047 1715.3 242.913C1723.3 248.247 1728.1 254.913 1729.7 262.913C1730.77 268.78 1729.17 282.113 1724.9 302.913C1721.17 323.18 1715.3 350.647 1707.3 385.313C1707.3 391.18 1705.7 400.78 1702.5 414.113C1699.3 427.447 1695.83 441.58 1692.1 456.513C1688.9 471.447 1686.5 484.247 1684.9 494.913C1682.77 508.78 1680.37 521.847 1677.7 534.113C1675.03 545.847 1672.37 551.447 1669.7 550.913C1655.83 611.18 1641.17 662.647 1625.7 705.313C1610.77 747.447 1597.43 781.847 1585.7 808.513C1572.9 837.847 1556.37 856.513 1536.1 864.513C1516.37 873.047 1497.97 866.38 1480.9 844.513C1470.77 830.647 1462.23 817.047 1455.3 803.713C1448.37 790.38 1442.77 774.647 1438.5 756.513C1434.23 738.38 1430.5 715.447 1427.3 687.713C1424.1 665.313 1421.17 643.447 1418.5 622.113C1416.37 600.247 1414.77 578.113 1413.7 555.713C1412.63 532.78 1412.37 508.513 1412.9 482.913C1413.43 452.513 1412.1 434.647 1408.9 429.313C1406.23 423.98 1402.23 426.913 1396.9 438.113C1391.57 449.313 1385.43 464.513 1378.5 483.713C1374.77 494.38 1370.23 506.647 1364.9 520.513C1360.1 533.847 1355.03 547.18 1349.7 560.513C1344.37 573.847 1339.83 585.313 1336.1 594.913C1332.37 604.513 1329.97 610.647 1328.9 613.313C1325.7 619.713 1321.97 628.247 1317.7 638.913C1313.43 649.047 1309.97 659.98 1307.3 671.713C1288.1 721.847 1273.7 765.047 1264.1 801.313C1255.03 837.047 1248.37 860.78 1244.1 872.513C1238.77 887.447 1233.7 896.513 1228.9 899.713C1224.63 902.913 1215.83 900.78 1202.5 893.313Z" fill="#070727"/>
</svg>
